<svg xmlns="http://www.w3.org/2000/svg" xmlns:xlink="http://www.w3.org/1999/xlink" width="135.481" height="140" viewBox="0 0 135.481 140">
  <defs>
    <linearGradient id="linear-gradient" x1="0.5" x2="0.5" y2="0.827" gradientUnits="objectBoundingBox">
      <stop offset="0" stop-color="#d97eb0"/>
      <stop offset="1" stop-color="#363159"/>
    </linearGradient>
    <filter id="_" x="0" y="0" width="135.481" height="140" filterUnits="userSpaceOnUse">
      <feOffset input="SourceAlpha"/>
      <feGaussianBlur stdDeviation="15" result="blur"/>
      <feFlood/>
      <feComposite operator="in" in2="blur"/>
      <feComposite in="SourceGraphic"/>
    </filter>
  </defs>
  <g id="Group_259" data-name="Group 259" transform="translate(-188.139 38.763)">
    <g transform="matrix(1, 0, 0, 1, 188.14, -38.76)" filter="url(#_)">
      <path id="_2" data-name="" d="M-3.644,23.75a24.958,24.958,0,0,0,19.418-9.255,4.69,4.69,0,0,0-4.516-7.559A13,13,0,0,1-4.2-5.837,13,13,0,0,1,2.386-17.149,4.691,4.691,0,0,0,.92-25.832a25.053,25.053,0,0,0-4.564-.418,25,25,0,0,0-25,25A25,25,0,0,0-3.644,23.75Zm0-45.313a20.429,20.429,0,0,1,3.713.34A17.685,17.685,0,0,0-8.886-5.837,17.7,17.7,0,0,0,12.134,11.541,20.272,20.272,0,0,1-3.644,19.063,20.313,20.313,0,0,1-23.957-1.25,20.313,20.313,0,0,1-3.644-21.562Z" transform="translate(73.64 71.25)" fill="url(#linear-gradient)"/>
    </g>
  </g>
</svg>
