<?xml version="1.0" encoding="utf-8"?>
<!-- Generator: Adobe Illustrator 26.5.0, SVG Export Plug-In . SVG Version: 6.00 Build 0)  -->
<svg version="1.1" id="PLANETS" xmlns="http://www.w3.org/2000/svg" xmlns:xlink="http://www.w3.org/1999/xlink" x="0px" y="0px"
	 viewBox="0 0 14 14" style="enable-background:new 0 0 14 14;" xml:space="preserve">
<style type="text/css">
	.st0{fill:none;}
	.st1{fill:url(#Union_400_00000150810468550503230070000005540262854802712987_);}
</style>
<rect id="Rectangle_16808" class="st0" width="14" height="14"/>
<linearGradient id="Union_400_00000003826419787986381920000017392566251533487273_" gradientUnits="userSpaceOnUse" x1="6.8976" y1="10.6252" x2="7.0965" y2="3.4254">
	<stop  offset="0.3702" style="stop-color:#F9A146"/>
	<stop  offset="0.3778" style="stop-color:#F9A644"/>
	<stop  offset="0.4186" style="stop-color:#FBBC3B"/>
	<stop  offset="0.4667" style="stop-color:#FCCD34"/>
	<stop  offset="0.5263" style="stop-color:#FDD830"/>
	<stop  offset="0.61" style="stop-color:#FEDF2D"/>
	<stop  offset="0.8421" style="stop-color:#FEE12C"/>
</linearGradient>
<path id="Union_400" style="fill:url(#Union_400_00000003826419787986381920000017392566251533487273_);" d="M6.9,13.7
	c-0.3,0-0.5-0.2-0.5-0.5V2.5l-5,5C1.3,7.6,1.1,7.7,1,7.7c-0.1,0-0.2,0-0.3-0.1L0.5,7.3C0.4,7.2,0.3,7.1,0.3,7c0-0.1,0.1-0.2,0.1-0.3
	l6.2-6.2C6.8,0.4,6.9,0.3,7,0.3c0.1,0,0.2,0.1,0.3,0.1l6.2,6.2c0.2,0.2,0.2,0.5,0,0.7c0,0,0,0,0,0l-0.2,0.2
	c-0.1,0.1-0.2,0.1-0.3,0.1c-0.1,0-0.2,0-0.3-0.1l-5-5v10.7c0,0.3-0.2,0.5-0.5,0.5L6.9,13.7z"/>
</svg>
